<?xml version="1.0" encoding="UTF-8" standalone="no"?>
<!DOCTYPE svg PUBLIC "-//W3C//DTD SVG 1.1//EN" "http://www.w3.org/Graphics/SVG/1.1/DTD/svg11.dtd">
<svg width="100%" height="100%" viewBox="0 0 60 60" version="1.1" style="fill-rule:evenodd;clip-rule:evenodd;stroke-linejoin:round;stroke-miterlimit:2;">
    <g transform="matrix(0.670942,0,0,0.670942,9.87175,9.87175)">
        <g transform="matrix(0.533076,0,0,0.533076,14.0077,14.0077)">
            <path d="M-0,35.592C-3.086,35.592 -5.592,33.086 -5.592,30C-5.592,26.914 -3.086,24.408 0,24.408L60,24.408C63.086,24.408 65.592,26.914 65.592,30C65.592,33.086 63.086,35.592 60,35.592L-0,35.592Z"/>
        </g>
        <g transform="matrix(0.533076,0,0,0.533076,14.0077,14.0077)">
            <path d="M-0,5.592C-3.086,5.592 -5.592,3.086 -5.592,-0C-5.592,-3.086 -3.086,-5.592 0,-5.592L60,-5.592C63.086,-5.592 65.592,-3.086 65.592,-0C65.592,3.086 63.086,5.592 60,5.592L-0,5.592Z"/>
        </g>
        <g transform="matrix(0.533076,0,0,0.533076,14.0077,14.0077)">
            <path d="M0,65.592C-3.086,65.592 -5.592,63.086 -5.592,60C-5.592,56.914 -3.086,54.408 0,54.408L60,54.408C63.086,54.408 65.592,56.914 65.592,60C65.592,63.086 63.086,65.592 60,65.592L0,65.592Z"/>
        </g>
    </g>
</svg>
