<?xml version="1.0" encoding="UTF-8" standalone="no"?>
<!DOCTYPE svg PUBLIC "-//W3C//DTD SVG 1.1//EN" "http://www.w3.org/Graphics/SVG/1.1/DTD/svg11.dtd">
<svg width="100%" height="100%" viewBox="0 0 60 60" version="1.1" style="fill-rule:evenodd;clip-rule:evenodd;stroke-linejoin:round;stroke-miterlimit:2;">
    <g transform="matrix(0.826334,0,0,1.06569,2.14102,-1.97066)">
        <path d="M55.4,28.123L60.241,28.123L60.241,45.018L-0.241,45.018L-0.241,14.982L31.497,14.982L31.497,18.736L4.6,18.736L4.6,41.264L55.4,41.264L55.4,28.123ZM55.136,19.827C49.959,20.235 36.28,21.535 32.169,26.903C30.97,28.469 30.863,29.978 30.834,30L30,30.647C29.757,30.406 29.409,30.237 29.166,29.996C29.165,29.996 29.075,29.438 29.08,28.779C29.143,19.985 43.681,17.041 44.31,16.891C45.138,16.693 49.077,15.75 54.837,15.14C54.245,13.358 53.101,11.727 51.424,10.554L70.019,16.859L52.357,24.611C53.856,23.323 54.776,21.628 55.136,19.827Z"/>
    </g>
</svg>
