<?xml version="1.0" encoding="UTF-8" standalone="no"?>
<!DOCTYPE svg PUBLIC "-//W3C//DTD SVG 1.1//EN" "http://www.w3.org/Graphics/SVG/1.1/DTD/svg11.dtd">
<svg width="100%" height="100%" viewBox="0 0 60 60" version="1.1" style="fill-rule:evenodd;clip-rule:evenodd;stroke-linejoin:round;stroke-miterlimit:2;">
    <g>
        <path d="M27.879,30L16.209,18.331C15.624,17.745 15.624,16.795 16.209,16.209C16.795,15.624 17.745,15.624 18.331,16.209L30,27.879L41.669,16.209C42.255,15.624 43.205,15.624 43.791,16.209C44.376,16.795 44.376,17.745 43.791,18.331L32.121,30L43.791,41.669C44.376,42.255 44.376,43.205 43.791,43.791C43.205,44.376 42.255,44.376 41.669,43.791L30,32.121L18.331,43.791C17.745,44.376 16.795,44.376 16.209,43.791C15.624,43.205 15.624,42.255 16.209,41.669L27.879,30Z"/>
    </g>
</svg>
